PathFileType	4	(X/Y/Z)	/Users/itak/Documents/Research/Walk-IL/dataset/trc/00512_00183.trc
DataRate	CameraRate	NumFrames	NumMarkers	Units	OrigDataRate	OrigDataStartFrame	OrigNumFrames
100.000000	100.000000	4	54	mm	100.000000	211	422
Frame#	Time	RPSI			LPSI			L3			STRN			T10			C7			CLAV			RBAK			LBAK			LSHO			LUPA			LAEL			LAOL			LWTS			LWPS			LFRA			LIFD			LHPS			LHTS			RSHO			RUPA			RAEL			RAOL			RWTS			RWPS			RFRA			RIFD			RHTS			RHPS			RBHD			LFHD			RFHD			LBHD			LHIP			RASI			LASI			LKNE			LTHI			LANK			LTIP			LTOE			LMT1			LMT5			LHEE			RKNE			RTHI			RANK			RTIP			RTOE			RMT1			RMT5			RHEE			RHIP			*53			
		X1	Y1	Z1	X2	Y2	Z2	X3	Y3	Z3	X4	Y4	Z4	X5	Y5	Z5	X6	Y6	Z6	X7	Y7	Z7	X8	Y8	Z8	X9	Y9	Z9	X10	Y10	Z10	X11	Y11	Z11	X12	Y12	Z12	X13	Y13	Z13	X14	Y14	Z14	X15	Y15	Z15	X16	Y16	Z16	X17	Y17	Z17	X18	Y18	Z18	X19	Y19	Z19	X20	Y20	Z20	X21	Y21	Z21	X22	Y22	Z22	X23	Y23	Z23	X24	Y24	Z24	X25	Y25	Z25	X26	Y26	Z26	X27	Y27	Z27	X28	Y28	Z28	X29	Y29	Z29	X30	Y30	Z30	X31	Y31	Z31	X32	Y32	Z32	X33	Y33	Z33	X34	Y34	Z34	X35	Y35	Z35	X36	Y36	Z36	X37	Y37	Z37	X38	Y38	Z38	X39	Y39	Z39	X40	Y40	Z40	X41	Y41	Z41	X42	Y42	Z42	X43	Y43	Z43	X44	Y44	Z44	X45	Y45	Z45	X46	Y46	Z46	X47	Y47	Z47	X48	Y48	Z48	X49	Y49	Z49	X50	Y50	Z50	X51	Y51	Z51	X52	Y52	Z52	X53	Y53	Z53	X54	Y54	Z54	

212	2.11	102.3628768920898	939.1976928710938	264.2027587890625	174.6439819335938	943.8871459960938	163.6918029785156	153.5560302734375	1021.637817382812	197.8267211914062	349.3240051269531	1161.110595703125	356.0745544433594	156.8479766845703	1127.908081054688	193.3864593505859	218.3903656005859	1350.709594726562	236.4546813964844	328.9530029296875	1259.785400390625	336.4613037109375	113.8501358032227	1240.528686523438	262.0357971191406	253.4567108154297	1294.079711914062	152.4902496337891	378.0753784179688	1328.484985351562	161.6739349365234	410.495361328125	1194.18896484375	122.4213180541992	432.0401000976562	1027.163940429688	160.9118957519531	354.1556396484375	961.5690307617188	147.3433837890625	473.5114135742188	1091.192749023438	340.8187255859375	479.6724853515625	1000.895568847656	370.0512084960938	458.8379821777344	1024.038452148438	223.7512054443359	475.9317321777344	1088.398559570312	471.6438293457031	507.1770324707031	1018.293090820312	416.5643615722656	519.3075561523438	1083.78955078125	405.8529357910156	163.5284423828125	1342.570922851562	385.9127807617188	99.29000854492188	1297.071533203125	400.04931640625	-41.94579315185547	1091.00439453125	355.4292297363281	-49.78775787353516	1078.4375	290.1295166015625	48.90493774414062	911.8369140625	449.3836669921875	-36.77824401855469	889.0684814453125	429.3612976074219	-52.00282287597656	1042.531982421875	366.570556640625	33.00212097167969	754.6394653320312	478.936279296875	31.35834312438965	824.5179443359375	496.3777770996094	-31.70129776000977	824.0810546875	462.7997741699219	204.9797058105469	1500.490966796875	338.1297912597656	382.9532775878906	1558.307006835938	267.8673706054688	321.771484375	1561.37841796875	379.2277221679688	271.114013671875	1493.675048828125	190.4867858886719	327.9446716308594	861.2699584960938	108.0020751953125	244.1521606445312	892.4515991210938	423.3584289550781	373.2207641601562	890.19287109375	217.6475067138672	221.382568359375	446.9020385742188	154.8373107910156	288.2879943847656	595.0267944335938	143.0429382324219	-72.70516204833984	129.0220489501953	15.04201984405518	132.8202209472656	326.203857421875	107.5428695678711	10.45724201202393	31.4677562713623	143.3828582763672	-47.88607406616211	62.61236572265625	146.4005584716797	-9.265116691589355	51.64785385131836	47.36608505249023	-129.4649047851562	166.5413055419922	48.60549545288086	317.5175170898438	519.3065795898438	501.0386657714844	190.6699829101562	743.7418212890625	468.7932434082031	177.1307220458984	122.3134384155273	423.6790466308594	311.9712829589844	383.9355163574219	500.6116943359375	340.8690490722656	66.00983428955078	513.9547729492188	319.2050170898438	74.34415435791016	445.1433410644531	244.458251953125	87.25006866455078	503.4860229492188	168.6938934326172	126.9630661010742	354.0044860839844	128.5353851318359	851.2384643554688	433.635009765625	nan	nan	nan	
213	2.12	124.5353698730469	944.3075561523438	276.9447021484375	198.0976257324219	948.8001708984375	177.4683837890625	176.2083129882812	1025.6826171875	209.9159698486328	367.2790222167969	1166.448608398438	370.7570495605469	177.7576141357422	1131.543701171875	203.195556640625	237.4119567871094	1354.611694335938	246.6796417236328	346.3642272949219	1264.958984375	350.2312622070312	132.8585662841797	1244.434448242188	269.6458435058594	275.2173767089844	1298.2939453125	163.9134368896484	399.1976318359375	1333.416381835938	176.7207183837891	433.5154418945312	1199.685424804688	138.1906890869141	453.9801025390625	1033.00927734375	177.1587982177734	376.8650817871094	967.0534057617188	161.4324951171875	489.0713195800781	1099.040283203125	358.2091674804688	494.4456481933594	1009.19580078125	388.8659973144531	478.7279357910156	1030.720825195312	240.8690490722656	484.7945251464844	1098.283325195312	489.0224914550781	519.5095825195312	1027.434814453125	436.6114501953125	531.7846069335938	1092.835205078125	425.5696411132812	179.2550659179688	1346.704833984375	394.4413146972656	114.7685470581055	1302.03955078125	406.7648010253906	-26.03299140930176	1097.828491210938	356.5387268066406	-30.91342926025391	1084.151245117188	291.1372375488281	59.51239395141602	919.5369262695312	458.2314147949219	-24.67696380615234	895.9116821289062	433.1073608398438	-36.75184631347656	1049.466674804688	367.9314270019531	43.05398178100586	762.8726806640625	489.0711059570312	39.35380935668945	832.9478149414062	505.7720947265625	-21.45655822753906	831.592529296875	468.0356140136719	221.8969268798828	1505.29150390625	349.1323852539062	399.8939819335938	1562.293090820312	278.1521301269531	339.0214538574219	1565.957397460938	389.6753234863281	287.5661010742188	1497.617431640625	201.3417053222656	351.7166748046875	865.8469848632812	122.9367218017578	264.9007263183594	898.1216430664062	437.1495666503906	395.6583862304688	894.429443359375	233.15966796875	237.5466156005859	452.5447998046875	161.9585418701172	307.9375	599.7896118164062	154.160400390625	-57.5463752746582	137.3032531738281	15.65807819366455	148.5240173339844	332.7830505371094	112.1017608642578	13.06232643127441	30.81423568725586	144.103759765625	-41.23145294189453	67.24521636962891	146.3132019042969	-1.045698881149292	54.39772796630859	47.96955108642578	-112.3137588500977	178.0154876708984	48.79760360717773	339.9951477050781	524.3433837890625	511.5206909179688	212.8316497802734	749.5501708984375	482.148681640625	230.87548828125	109.4687194824219	449.8939514160156	343.3207092285156	385.947998046875	515.9056396484375	401.0136108398438	69.23027038574219	538.7592163085938	377.4413452148438	74.87020111083984	470.1987915039062	302.5662536621094	81.58468627929688	529.3898315429688	221.0255432128906	112.5372467041016	380.1263427734375	149.8012847900391	857.387451171875	447.2417297363281	nan	nan	nan	
214	2.13	146.7296295166016	948.9573364257812	290.0180969238281	221.2914123535156	953.3352661132812	191.3913726806641	198.7609252929688	1029.363037109375	222.4281616210938	385.4264526367188	1170.963745117188	385.2603454589844	198.6458892822266	1134.690551757812	213.3962554931641	256.6303405761719	1357.914794921875	257.203857421875	364.0249328613281	1269.334838867188	363.9609375	152.0733947753906	1247.763671875	277.7178039550781	296.9715881347656	1301.98779296875	175.5668334960938	420.2508239746094	1337.672119140625	191.792724609375	456.384521484375	1204.5322265625	153.8024139404297	475.8041381835938	1037.979614257812	192.8088989257812	399.29443359375	971.869140625	174.8399505615234	504.8299560546875	1105.3369140625	375.0364379882812	509.2495422363281	1015.838745117188	406.6774291992188	498.5345153808594	1036.26123046875	257.2919311523438	494.0010070800781	1106.069091796875	505.610595703125	531.9133911132812	1034.686157226562	455.6002502441406	544.4336547851562	1099.9970703125	444.5411376953125	195.5605010986328	1350.090576171875	403.3729553222656	130.8668365478516	1306.172973632812	414.0567016601562	-9.12448787689209	1103.52294921875	358.5051574707031	-11.30796718597412	1088.763305664062	293.1653442382812	71.37831115722656	926.3062744140625	467.2252502441406	-11.16508960723877	901.7098388671875	437.5881958007812	-20.41260528564453	1055.2392578125	370.1180419921875	54.64817428588867	770.130126953125	499.3823547363281	48.97213363647461	840.377197265625	515.2372436523438	-9.610846519470215	838.0243530273438	473.8503723144531	238.8475952148438	1509.092529296875	360.1686401367188	416.6546630859375	1565.794799804688	288.4297485351562	356.0995788574219	1569.915771484375	400.1130065917969	303.9724731445312	1500.606567382812	212.3037567138672	375.1757507324219	870.0736694335938	137.7042236328125	285.9471740722656	903.0064086914062	450.8532409667969	417.9426879882812	898.2225341796875	248.4080963134766	255.2203521728516	457.418701171875	169.9282989501953	328.2762145996094	604.033447265625	165.538330078125	-41.00861740112305	145.9307098388672	16.67121696472168	165.6949310302734	338.7869873046875	117.5185470581055	17.36671257019043	30.31810188293457	144.7816772460938	-32.97338485717773	72.35109710693359	146.2483673095703	8.720893859863281	57.98519515991211	48.68046188354492	-93.9334716796875	189.3914489746094	49.43343353271484	361.4678344726562	527.7815551757812	521.7838745117188	234.7751770019531	754.203369140625	495.3863525390625	283.9557189941406	98.03524780273438	475.0889282226562	373.4517211914062	387.1719970703125	530.6343994140625	459.2110900878906	73.04074096679688	561.8760375976562	433.8827819824219	76.41923522949219	493.6797790527344	359.4459838867188	76.88090515136719	553.8756103515625	272.7487487792969	99.85939788818359	405.3007202148438	171.3031311035156	862.6807250976562	460.9026489257812	nan	nan	nan	
215	2.14	168.892333984375	952.93701171875	303.3702087402344	244.1462707519531	957.2794189453125	205.3812713623047	221.1352233886719	1032.503662109375	235.2696380615234	403.7309875488281	1174.500610351562	399.5589294433594	219.4940948486328	1137.19140625	223.9720764160156	275.9939880371094	1360.467529296875	268.0016479492188	381.9110107421875	1272.76171875	377.6220092773438	171.4351348876953	1250.349365234375	286.2529907226562	318.6485595703125	1304.99365234375	187.3929595947266	441.1995849609375	1341.077026367188	206.8055725097656	479.0470275878906	1208.518310546875	169.2244720458984	497.5098571777344	1041.88525390625	207.8977813720703	421.4461059570312	975.8123779296875	187.6700592041016	520.9620971679688	1109.91650390625	391.323486328125	524.2868041992188	1020.64794921875	423.5294189453125	518.3226318359375	1040.468872070312	273.056884765625	503.9187622070312	1111.63427734375	521.4675903320312	544.6714477539062	1039.869506835938	473.5553588867188	557.5359497070312	1105.097778320312	462.7500610351562	212.3783264160156	1352.600708007812	412.7221069335938	147.5137939453125	1309.3251953125	421.9481201171875	8.65488338470459	1107.919189453125	361.4606018066406	8.887419700622559	1092.119873046875	296.3049926757812	84.51416778564453	931.9588623046875	476.4899291992188	3.678965091705322	906.30810546875	442.9819641113281	-3.10403299331665	1059.692626953125	373.2786560058594	67.80100250244141	776.2125244140625	509.9527282714844	60.25682067871094	846.5958862304688	524.90966796875	3.796284675598145	843.1998291015625	480.4147644042969	255.8417816162109	1511.7763671875	371.2204284667969	433.2568359375	1568.662231445312	298.6771545410156	373.0150146484375	1573.141845703125	410.5120849609375	320.3696594238281	1502.491333007812	223.3555450439453	398.2284240722656	873.7388916015625	152.2215118408203	307.2725524902344	906.9276123046875	464.4253540039062	440.0379638671875	901.3967895507812	263.2957153320312	274.4768676757812	461.1894226074219	178.8612060546875	349.2938232421875	607.5137939453125	177.2214202880859	-23.26588439941406	154.9055938720703	18.20417594909668	184.3310852050781	343.9819641113281	123.8815460205078	23.7795352935791	30.13962554931641	145.2637329101562	-22.85697364807129	77.83833312988281	146.2399597167969	20.1792106628418	62.54379272460938	49.46259307861328	-74.53871154785156	200.5508728027344	50.75514984130859	382.1940307617188	529.5886840820312	531.9844970703125	256.4787292480469	757.5150756835938	508.5061340332031	335.6336364746094	88.06101989746094	498.908935546875	402.4124145507812	387.5612487792969	544.791748046875	514.8795166015625	77.05809020996094	583.0569458007812	487.9021301269531	78.68099212646484	515.3115234375	414.4132995605469	72.99378204345703	576.6256713867188	323.1163330078125	88.99479675292969	429.16162109375	193.0133819580078	866.8779296875	474.5572814941406	nan	nan	nan	
